<?xml version="1.0" encoding="UTF-8"?>
<svg width="200" height="200" viewBox="0 0 200 200" xmlns="http://www.w3.org/2000/svg">
  <!-- Lion cub companion - warm, friendly, non-distracting artwork -->

  <!-- Tail -->
  <path d="M142 150 Q178 142 166 116" fill="none" stroke="#E8A857" stroke-width="10" stroke-linecap="round"/>
  <circle cx="166" cy="116" r="8" fill="#8A5A34"/>

  <!-- Body -->
  <ellipse cx="100" cy="148" rx="52" ry="36" fill="#F9C87B"/>
  <ellipse cx="100" cy="155" rx="34" ry="20" fill="#FCEBCB"/>

  <!-- Paws -->
  <ellipse cx="74" cy="177" rx="15" ry="12" fill="#F9C87B"/>
  <ellipse cx="126" cy="177" rx="15" ry="12" fill="#F9C87B"/>
  <ellipse cx="74" cy="180" rx="8" ry="5" fill="#FCEBCB"/>
  <ellipse cx="126" cy="180" rx="8" ry="5" fill="#FCEBCB"/>

  <!-- Ears -->
  <circle cx="62" cy="52" r="18" fill="#E8A857"/>
  <circle cx="138" cy="52" r="18" fill="#E8A857"/>
  <circle cx="62" cy="52" r="9" fill="#FCEBCB"/>
  <circle cx="138" cy="52" r="9" fill="#FCEBCB"/>

  <!-- Head -->
  <circle cx="100" cy="88" r="44" fill="#F9C87B"/>

  <!-- Muzzle -->
  <ellipse cx="100" cy="102" rx="25" ry="18" fill="#FCEBCB"/>

  <!-- Eyes -->
  <circle cx="84" cy="86" r="4.5" fill="#23415D"/>
  <circle cx="116" cy="86" r="4.5" fill="#23415D"/>
  <circle cx="85.5" cy="84.5" r="1.3" fill="#FFFFFF"/>
  <circle cx="117.5" cy="84.5" r="1.3" fill="#FFFFFF"/>

  <!-- Nose -->
  <ellipse cx="100" cy="97" rx="6.5" ry="4.5" fill="#8A5A34"/>

  <!-- Mouth -->
  <path d="M100 101 Q100 109 91 108" fill="none" stroke="#8A5A34" stroke-width="2.5" stroke-linecap="round"/>
  <path d="M100 101 Q100 109 109 108" fill="none" stroke="#8A5A34" stroke-width="2.5" stroke-linecap="round"/>

  <!-- Cheeks -->
  <circle cx="75" cy="100" r="5.5" fill="#F4A3A3" opacity="0.55"/>
  <circle cx="125" cy="100" r="5.5" fill="#F4A3A3" opacity="0.55"/>
</svg>
